<?xml version="1.0" standalone="no"?>
<!DOCTYPE svg PUBLIC "-//W3C//DTD SVG 20010904//EN"
 "http://www.w3.org/TR/2001/REC-SVG-20010904/DTD/svg10.dtd">
<svg version="1.0" xmlns="http://www.w3.org/2000/svg"
 width="260.000000pt" height="260.000000pt" viewBox="0 0 260.000000 260.000000"
 preserveAspectRatio="xMidYMid meet">
<metadata>
Created by potrace 1.11, written by Peter Selinger 2001-2013
</metadata>
<g transform="translate(0.000000,260.000000) scale(0.100000,-0.100000)"
fill="#000000" stroke="none">
<path d="M540 1625 l-325 -325 325 -325 325 -325 72 72 c40 40 73 77 73 83 0
6 -110 120 -245 255 l-245 245 247 247 248 248 -75 75 -75 75 -325 -325z"/>
<path d="M1660 1875 l-75 -75 248 -248 247 -247 -245 -245 c-135 -135 -245
-249 -245 -255 0 -6 33 -43 73 -83 l72 -72 325 325 325 325 -325 325 -325 325
-75 -75z"/>
</g>
</svg>
